HIERARCHY
ROOT hip
{
  OFFSET 0.0 0.0 0.0
  CHANNELS 6 Xposition Yposition Zposition Zrotation Yrotation Xrotation
  JOINT abdomen
  {
    OFFSET 0.0 20.6881 -0.73152
    CHANNELS 3 Zrotation Xrotation Yrotation
    JOINT chest
    {
      OFFSET 0.0 11.7043 -0.48768
      CHANNELS 3 Zrotation Xrotation Yrotation
      JOINT neck
      {
        OFFSET 0.0 22.1894 -2.19456
        CHANNELS 3 Zrotation Xrotation Yrotation
        JOINT head
        {
          OFFSET -0.24384 7.07133 1.2192
          CHANNELS 3 Zrotation Xrotation Yrotation
          JOINT leftEye
          {
            OFFSET 4.14528 8.04674 8.04672
            CHANNELS 3 Zrotation Xrotation Yrotation
            End Site
            {
              OFFSET 1.0 0.0 0.0
            }
          }
          JOINT rightEye
          {
            OFFSET -3.6576 8.04674 8.04672
            CHANNELS 3 Zrotation Xrotation Yrotation
            End Site
            {
              OFFSET 1.0 0.0 0.0
            }
          }
        }
      }
      JOINT rCollar
      {
        OFFSET -2.68224 19.2634 -4.8768
        CHANNELS 3 Zrotation Xrotation Yrotation
        JOINT rShldr
        {
          OFFSET -8.77824 -1.95073 1.46304
          CHANNELS 3 Zrotation Xrotation Yrotation
          JOINT rForeArm
          {
            OFFSET -28.1742 -1.7115 0.48768
            CHANNELS 3 Zrotation Xrotation Yrotation
            JOINT rHand
            {
              OFFSET -22.5879 0.773209 7.07136
              CHANNELS 3 Zrotation Xrotation Yrotation
              JOINT rThumb1
              {
                OFFSET -1.2192 -0.487915 3.41376
                CHANNELS 3 Zrotation Xrotation Yrotation
                JOINT rThumb2
                {
                  OFFSET -3.37035 -0.52449 3.41376
                  CHANNELS 3 Zrotation Xrotation Yrotation
                  End Site
                  {
                    OFFSET -1.78271 -1.18214 1.43049
                  }
                }
              }
              JOINT rIndex1
              {
                OFFSET -7.75947 0.938293 5.60832
                CHANNELS 3 Zrotation Xrotation Yrotation
                JOINT rIndex2
                {
                  OFFSET -2.54057 -0.884171 1.56538
                  CHANNELS 3 Zrotation Xrotation Yrotation
                  End Site
                  {
                    OFFSET -1.62519 -0.234802 1.16502
                  }
                }
              }
              JOINT rMid1
              {
                OFFSET -8.24714 1.18213 3.41376
                CHANNELS 3 Zrotation Xrotation Yrotation
                JOINT rMid2
                {
                  OFFSET -3.10165 -0.590103 1.0647
                  CHANNELS 3 Zrotation Xrotation Yrotation
                  End Site
                  {
                    OFFSET -2.48547 -0.328903 0.83742
                  }
                }
              }
              JOINT rRing1
              {
                OFFSET -8.82822 0.546677 1.51678
                CHANNELS 3 Zrotation Xrotation Yrotation
                JOINT rRing2
                {
                  OFFSET -2.60934 -0.819778 -0.0198488
                  CHANNELS 3 Zrotation Xrotation Yrotation
                  End Site
                  {
                    OFFSET -2.33842 -0.294052 0.168128
                  }
                }
              }
              JOINT rPinky1
              {
                OFFSET -8.27202 -0.0477905 -0.4584
                CHANNELS 3 Zrotation Xrotation Yrotation
                JOINT rPinky2
                {
                  OFFSET -1.82734 -0.647385 -0.700984
                  CHANNELS 3 Zrotation Xrotation Yrotation
                  End Site
                  {
                    OFFSET -1.69225 -0.51767 -0.607171
                  }
                }
              }
            }
          }
        }
      }
      JOINT lCollar
      {
        OFFSET 2.68224 19.2634 -4.8768
        CHANNELS 3 Zrotation Xrotation Yrotation
        JOINT lShldr
        {
          OFFSET 8.77824 -1.95073 1.46304
          CHANNELS 3 Zrotation Xrotation Yrotation
          JOINT lForeArm
          {
            OFFSET 28.1742 -1.7115 0.48768
            CHANNELS 3 Zrotation Xrotation Yrotation
            JOINT lHand
            {
              OFFSET 22.5879 0.773209 7.07136
              CHANNELS 3 Zrotation Xrotation Yrotation
              JOINT lThumb1
              {
                OFFSET 1.2192 -0.487915 3.41376
                CHANNELS 3 Zrotation Xrotation Yrotation
                JOINT lThumb2
                {
                  OFFSET 3.37035 -0.52449 3.41376
                  CHANNELS 3 Zrotation Xrotation Yrotation
                  End Site
                  {
                    OFFSET 1.78271 -1.18214 1.43049
                  }
                }
              }
              JOINT lIndex1
              {
                OFFSET 7.75947 0.938293 5.60832
                CHANNELS 3 Zrotation Xrotation Yrotation
                JOINT lIndex2
                {
                  OFFSET 2.54057 -0.884171 1.56538
                  CHANNELS 3 Zrotation Xrotation Yrotation
                  End Site
                  {
                    OFFSET 1.62519 -0.234802 1.16502
                  }
                }
              }
              JOINT lMid1
              {
                OFFSET 8.24714 1.18213 3.41376
                CHANNELS 3 Zrotation Xrotation Yrotation
                JOINT lMid2
                {
                  OFFSET 3.10165 -0.590103 1.0647
                  CHANNELS 3 Zrotation Xrotation Yrotation
                  End Site
                  {
                    OFFSET 2.48547 -0.328903 0.83742
                  }
                }
              }
              JOINT lRing1
              {
                OFFSET 8.82822 0.546677 1.51678
                CHANNELS 3 Zrotation Xrotation Yrotation
                JOINT lRing2
                {
                  OFFSET 2.60934 -0.819778 -0.0198488
                  CHANNELS 3 Zrotation Xrotation Yrotation
                  End Site
                  {
                    OFFSET 2.33842 -0.294052 0.168128
                  }
                }
              }
              JOINT lPinky1
              {
                OFFSET 8.27202 -0.0477905 -0.4584
                CHANNELS 3 Zrotation Xrotation Yrotation
                JOINT lPinky2
                {
                  OFFSET 1.82734 -0.647385 -0.700984
                  CHANNELS 3 Zrotation Xrotation Yrotation
                  End Site
                  {
                    OFFSET 1.69225 -0.51767 -0.607171
                  }
                }
              }
            }
          }
        }
      }
    }
  }
  JOINT rButtock
  {
    OFFSET -8.77824 4.35084 1.2192
    CHANNELS 3 Zrotation Xrotation Yrotation
    JOINT rThigh
    {
      OFFSET 0.0 -1.70687 -2.19456
      CHANNELS 3 Zrotation Xrotation Yrotation
      JOINT rShin
      {
        OFFSET 0.0 -36.8199 0.73152
        CHANNELS 3 Zrotation Xrotation Yrotation
        JOINT rFoot
        {
          OFFSET 0.73152 -45.1104 -5.12064
          CHANNELS 3 Zrotation Xrotation Yrotation
          End Site
          {
            OFFSET -1.1221 -3.69964 12.103
          }
        }
      }
    }
  }
  JOINT lButtock
  {
    OFFSET 8.77824 4.35084 1.2192
    CHANNELS 3 Zrotation Xrotation Yrotation
    JOINT lThigh
    {
      OFFSET 0.0 -1.70687 -2.19456
      CHANNELS 3 Zrotation Xrotation Yrotation
      JOINT lShin
      {
        OFFSET 0.0 -36.8199 0.73152
        CHANNELS 3 Zrotation Xrotation Yrotation
        JOINT lFoot
        {
          OFFSET -0.73152 -45.1104 -5.12064
          CHANNELS 3 Zrotation Xrotation Yrotation
          End Site
          {
            OFFSET 1.1221 -3.69964 12.103
          }
        }
      }
    }
  }
}
MOTION
Frames: 4
Frame Time: 0.00833333
42.99870000000001 84.6599 40.841899999999995 -4.2746 61.1347 -12.3058 -2.3776 11.4251 -3.91179 -1.43241 -2.63209 -1.26043 0.67942 15.5055 -1.64044 3.06067 -23.4149 -2.51827 -0.0 0.0 0.0 -0.0 0.0 0.0 0.0 0.0 0.0 0.0 0.0 0.0 0.0 0.0 0.0 -0.264644 14.4914 2.08164 4.22239e-10 3.44812e-10 8.62273e-10 7.40366e-10 6.05866e-10 1.48437e-09 4.22247e-10 3.4482e-10 8.62264e-10 7.73091 5.47488 0.417314 4.22238e-10 3.4481e-10 8.62282e-10 2.90554 0.965183 0.102902 4.22244e-10 3.44813e-10 8.62279e-10 10.2786 0.731801 0.0259123 4.22236e-10 3.44811e-10 8.62292e-10 2.22167 -0.733487 -0.20892 0.0 0.0 0.0 0.0 0.0 0.0 0.0 0.0 0.0 0.0456531 -6.08179 0.858004 5.14268e-10 -2.70624e-10 -1.06905e-09 8.92298e-10 -4.69213e-10 -1.84561e-09 5.14269e-10 -2.70619e-10 -1.06904e-09 -7.73091 5.47488 -0.417314 5.14268e-10 -2.7062e-10 -1.06905e-09 -2.90554 0.965183 -0.102902 5.14261e-10 -2.70619e-10 -1.06905e-09 -10.2786 0.731801 -0.0259123 5.1427e-10 -2.70617e-10 -1.06906e-09 -2.22167 -0.733487 0.20892 -2.03217e-16 0.0 -3.88251e-19 -0.957915 -17.3383 11.4902 -0.15593 22.352 0.336857 0.30368 9.69032 -9.17019 2.03217e-16 0.0 3.88251e-19 -1.77151 -8.11518 5.96889 0.181416 37.4544 -0.921862 0.469982 -4.70899 -1.24885
43.540800000000004 84.6159 41.462599999999995 -4.8188 61.3993 -12.7442 -2.07017 11.4004 -3.98718 -1.4401 -2.62441 -1.27426 0.646833 15.5156 -1.69023 3.06097 -23.4202 -2.61525 -0.0 0.0 0.0 -0.0 0.0 0.0 0.0 0.0 0.0 0.0 0.0 0.0 0.0 0.0 0.0 -0.255108 14.2346 2.04316 2.73663e-09 1.41677e-09 4.71414e-10 4.73375e-09 2.48949e-09 7.80068e-10 2.73664e-09 1.41678e-09 4.71403e-10 7.73091 5.47488 0.417314 2.73663e-09 1.41677e-09 4.7142e-10 2.90554 0.965183 0.102902 2.73664e-09 1.41677e-09 4.71419e-10 10.2786 0.731801 0.0259123 2.73663e-09 1.41677e-09 4.7143e-10 2.22167 -0.733487 -0.20892 0.0 0.0 0.0 0.0 0.0 0.0 0.0 0.0 0.0 0.0466408 -6.15024 0.86773 1.7805e-09 -1.15665e-09 -1.99806e-10 3.07892e-09 -2.00313e-09 -3.41183e-10 1.7805e-09 -1.15665e-09 -1.99798e-10 -7.73091 5.47488 -0.417314 1.7805e-09 -1.15665e-09 -1.99804e-10 -2.90554 0.965183 -0.102902 1.7805e-09 -1.15665e-09 -1.99808e-10 -10.2786 0.731801 -0.0259123 1.7805e-09 -1.15664e-09 -1.99816e-10 -2.22167 -0.733487 0.20892 -2.03217e-16 0.0 -3.88251e-19 -0.668051 -17.0059 11.4697 -0.155591 22.3336 0.337506 0.21774 9.29536 -8.89378 2.03217e-16 0.0 3.88251e-19 -1.60382 -8.58031 5.93983 0.186927 37.6395 -0.914712 0.509504 -4.95857 -0.864384
44.0694 84.5704 42.0693 -5.3524 61.6317 -13.1655 -1.78093 11.3681 -4.05135 -1.45163 -2.61587 -1.28567 0.618943 15.5225 -1.73386 3.05899 -23.4267 -2.70076 -0.0 0.0 0.0 -0.0 0.0 0.0 0.0 0.0 0.0 0.0 0.0 0.0 0.0 0.0 0.0 -0.246201 13.9893 2.0065 4.00416e-09 2.20655e-09 2.64171e-10 6.92056e-09 3.8715e-09 4.06037e-10 4.00416e-09 2.20656e-09 2.64158e-10 7.73091 5.47488 0.417314 4.00416e-09 2.20655e-09 2.64174e-10 2.90554 0.965183 0.102902 4.00416e-09 2.20655e-09 2.64174e-10 10.2786 0.731801 0.0259123 4.00416e-09 2.20655e-09 2.64183e-10 2.22167 -0.733487 -0.20892 0.0 0.0 0.0 0.0 0.0 0.0 0.0 0.0 0.0 0.0471634 -6.18597 0.872808 2.44132e-09 -1.76724e-09 9.1231e-11 4.22085e-09 -3.06015e-09 1.62868e-10 2.44133e-09 -1.76724e-09 9.12374e-11 -7.73091 5.47488 -0.417314 2.44132e-09 -1.76724e-09 9.12342e-11 -2.90554 0.965183 -0.102902 2.44132e-09 -1.76724e-09 9.12302e-11 -10.2786 0.731801 -0.0259123 2.44133e-09 -1.76723e-09 9.12215e-11 -2.22167 -0.733487 0.20892 -2.03217e-16 0.0 -3.88251e-19 -0.379496 -16.695 11.4162 -0.155618 22.3676 0.339488 0.127447 8.85817 -8.59939 2.03217e-16 0.0 3.88251e-19 -1.45412 -9.02276 5.94213 0.190466 37.7436 -0.90564 0.550088 -5.21157 -0.503271
44.583400000000005 84.522 42.6614 -5.8725 61.8308 -13.5655 -1.50914 11.3302 -4.10256 -1.46805 -2.60672 -1.29409 0.596416 15.5258 -1.77152 3.05417 -23.4346 -2.77525 -0.0 0.0 0.0 -0.0 0.0 0.0 0.0 0.0 0.0 0.0 0.0 0.0 0.0 0.0 0.0 -0.237896 13.7567 1.9718 3.64211e-09 2.49645e-09 4.38077e-10 6.29614e-09 4.36786e-09 7.10775e-10 3.64211e-09 2.49646e-09 4.38063e-10 7.73091 5.47488 0.417314 3.64211e-09 2.49645e-09 4.38079e-10 2.90554 0.965183 0.102902 3.64211e-09 2.49645e-09 4.38081e-10 10.2786 0.731801 0.0259123 3.64211e-09 2.49645e-09 4.3809e-10 2.22167 -0.733487 -0.20892 0.0 0.0 0.0 0.0 0.0 0.0 0.0 0.0 0.0 0.0472795 -6.19156 0.873607 2.20848e-09 -1.94284e-09 -6.10135e-10 3.82109e-09 -3.36405e-09 -1.04975e-09 2.20848e-09 -1.94284e-09 -6.1013e-10 -7.73091 5.47488 -0.417314 2.20848e-09 -1.94284e-09 -6.10133e-10 -2.90554 0.965183 -0.102902 2.20848e-09 -1.94284e-09 -6.10135e-10 -10.2786 0.731801 -0.0259123 2.20848e-09 -1.94284e-09 -6.10143e-10 -2.22167 -0.733487 0.20892 -2.03217e-16 0.0 -3.88251e-19 -0.0898212 -16.4077 11.315 -0.156117 22.4688 0.343221 0.0321264 8.37163 -8.27925 2.03217e-16 0.0 3.88251e-19 -1.32202 -9.44428 5.97829 0.192096 37.7639 -0.894644 0.591804 -5.47199 -0.163833
